<svg xmlns="http://www.w3.org/2000/svg" viewBox="0 0 64 64">
  <rect width="64" height="64" rx="14" fill="#1a6f68"/>
  <path fill="#f8fafc" d="M20.5 45.5c-6.9 0-11.9-5.2-11.9-12.9 0-7.6 5.1-12.9 12.1-12.9 4.8 0 8.5 2.2 10.2 6.1l-5.1 2.4c-.9-2-2.6-3.1-5-3.1-3.7 0-6.2 3-6.2 7.5 0 4.6 2.5 7.5 6.2 7.5 2.4 0 4.2-1.1 5.1-3.2l5.1 2.3c-1.7 4-5.5 6.3-10.5 6.3Zm15.2-.5V20.2h5.8v19.6h11.9V45H35.7Z"/>
  <path fill="#f8fafc" fill-opacity=".35" d="M51 13.5c0 4.1-3.4 7.5-7.5 7.5S36 17.6 36 13.5 39.4 6 43.5 6 51 9.4 51 13.5Z"/>
</svg>
